<?xml version="1.0" standalone="no"?>
<!DOCTYPE svg PUBLIC "-//W3C//DTD SVG 20010904//EN"
 "http://www.w3.org/TR/2001/REC-SVG-20010904/DTD/svg10.dtd">
<svg version="1.0" xmlns="http://www.w3.org/2000/svg"
 width="241.000000pt" height="209.000000pt" viewBox="0 0 241.000000 209.000000"
 preserveAspectRatio="xMidYMid meet">

<g transform="translate(0.000000,209.000000) scale(0.100000,-0.100000)"
fill="#000000" stroke="none">
<path d="M1594 1619 c-26 -51 -54 -89 -83 -114 -25 -20 -79 -87 -120 -148
l-76 -111 -130 -44 c-71 -24 -189 -54 -260 -67 -72 -13 -154 -33 -183 -44 -29
-12 -54 -21 -56 -21 -2 0 -26 18 -52 40 -42 35 -50 38 -63 25 -12 -12 -9 -20
23 -59 l37 -46 -29 -42 c-22 -32 -34 -68 -47 -143 -10 -55 -31 -132 -48 -170
-26 -63 -37 -76 -92 -115 -62 -44 -63 -47 -84 -122 -37 -135 -41 -169 -23
-200 14 -24 23 -28 64 -28 46 0 48 1 48 28 0 16 -7 37 -15 48 -39 52 0 142 90
204 l45 31 -6 -100 c-5 -71 -3 -109 6 -130 11 -28 17 -31 56 -31 43 0 44 1 44
33 0 21 -8 41 -19 51 -15 14 -18 26 -14 54 11 75 48 123 158 205 75 55 110 88
125 118 17 33 25 40 43 35 19 -4 173 -26 295 -42 41 -5 43 -7 38 -32 -3 -15
-10 -58 -17 -97 -6 -38 -18 -97 -27 -129 -12 -45 -13 -61 -4 -64 7 -2 12 -17
12 -34 0 -17 9 -46 21 -64 17 -27 27 -34 53 -34 22 0 40 -8 56 -25 20 -21 32
-25 65 -23 53 4 56 26 9 77 l-36 41 7 68 c6 55 33 200 60 320 3 13 23 42 43
65 58 64 89 145 97 257 6 84 11 101 43 157 l37 62 72 -2 c71 -2 73 -1 102 33
33 38 37 60 20 109 -9 25 -17 31 -39 31 -24 0 -28 5 -34 38 -6 42 -36 75 -81
89 -27 9 -30 14 -32 54 -2 65 -2 66 -18 45 -16 -22 -17 -21 -32 14 -10 24 -12
22 -49 -51z m-274 -1216 c0 -26 -3 -34 -11 -26 -9 9 -3 63 7 63 2 0 4 -17 4
-37z"/>
</g>
</svg>
