<?xml version="1.0" standalone="no"?>
<!DOCTYPE svg PUBLIC "-//W3C//DTD SVG 20010904//EN"
 "http://www.w3.org/TR/2001/REC-SVG-20010904/DTD/svg10.dtd">
<svg version="1.0" xmlns="http://www.w3.org/2000/svg"
 width="500.000000pt" height="500.000000pt" viewBox="0 0 500.000000 500.000000"
 preserveAspectRatio="xMidYMid meet">

<g transform="translate(0.000000,500.000000) scale(0.100000,-0.100000)"
fill="#000000" stroke="none">
<path d="M3120 3526 c-73 -28 -86 -35 -139 -75 -125 -94 -309 -134 -572 -124
-103 3 -197 1 -254 -6 -49 -7 -144 -18 -210 -25 -129 -14 -176 -30 -219 -75
-22 -23 -27 -36 -24 -67 2 -32 7 -40 27 -42 15 -3 21 0 16 8 -15 25 5 58 50
80 75 37 92 4 55 -105 -11 -32 -20 -67 -20 -77 0 -43 -30 -77 -95 -108 -67
-32 -85 -52 -85 -93 0 -13 -9 -50 -20 -82 -11 -33 -23 -82 -26 -110 -6 -45 -3
-55 18 -79 18 -22 34 -29 64 -30 32 -1 39 2 42 20 2 11 -4 27 -13 34 -37 30 2
163 64 219 28 25 97 60 120 61 8 0 33 10 58 22 60 30 72 18 54 -60 -31 -140
-35 -124 69 -223 l93 -89 78 0 c80 0 114 15 103 44 -6 16 -47 36 -75 36 -30 0
-73 25 -106 63 -44 51 -49 108 -17 206 36 108 32 105 90 79 39 -17 73 -23 172
-26 l122 -4 0 -47 c0 -65 -37 -139 -96 -189 -45 -39 -49 -45 -49 -88 0 -51 16
-70 72 -80 39 -7 103 3 103 16 0 12 -29 40 -55 56 -16 9 -11 17 48 76 47 47
69 77 77 107 14 54 59 127 86 139 12 6 42 13 67 17 44 7 47 6 59 -21 21 -49
116 -170 174 -222 75 -68 172 -116 216 -108 41 8 107 45 122 68 23 38 -46 73
-94 48 -25 -14 -100 12 -120 41 -8 12 -34 42 -57 68 -24 26 -55 74 -69 106
-25 55 -26 62 -14 104 7 25 16 65 21 89 13 63 17 66 55 32 48 -42 95 -41 138
3 18 17 35 39 38 47 4 12 9 13 27 3 40 -25 91 -14 139 30 33 30 27 50 -28 104
-34 33 -52 59 -56 83 -20 110 -131 183 -224 146z"/>
<path d="M1723 2352 c-61 -22 -135 -80 -168 -132 -110 -174 -43 -401 144 -489
54 -25 64 -26 259 -29 l202 -3 0 -172 c1 -232 20 -304 104 -390 69 -70 124
-92 236 -92 79 0 103 4 141 23 74 36 125 87 161 160 l33 67 3 202 4 203 30 0
29 0 -19 28 c-44 61 -89 100 -118 102 -70 5 -64 27 -64 -258 0 -281 -2 -291
-57 -344 -100 -96 -261 -69 -324 54 -17 34 -19 61 -19 292 l0 254 -257 4
c-228 3 -262 5 -296 22 -85 42 -128 139 -103 234 17 66 50 106 111 133 47 20
60 21 205 16 218 -8 359 -42 539 -131 122 -60 214 -127 322 -235 108 -108 175
-200 236 -323 56 -115 56 -115 24 -134 -38 -23 -71 -82 -71 -129 0 -49 35
-110 77 -135 76 -45 189 -13 224 63 46 101 -3 202 -111 226 -22 5 -43 8 -46 7
-4 0 -19 31 -34 69 -104 262 -302 499 -545 652 -121 77 -341 162 -474 185 -31
5 -117 11 -191 14 -114 4 -143 2 -187 -14z m1497 -989 c35 -24 40 -33 40 -79
0 -63 -26 -89 -90 -89 -43 0 -54 4 -70 25 -28 37 -32 67 -15 104 26 54 87 72
135 39z"/>
<path d="M2701 2306 l2 -65 266 -3 c246 -3 268 -4 297 -23 93 -60 127 -180 79
-275 -18 -35 -64 -77 -100 -90 -16 -7 -76 -14 -133 -17 -93 -5 -101 -7 -89
-22 8 -9 27 -38 42 -65 l28 -49 83 6 c135 8 236 75 296 196 18 37 23 63 23
136 0 80 -3 96 -30 148 -37 73 -109 140 -181 166 -50 19 -77 21 -319 21 l-265
0 1 -64z"/>
</g>
</svg>
